<svg xmlns="http://www.w3.org/2000/svg" viewBox="0 0 88 88" width="88" height="88"><defs/><circle cx="44" cy="44" r="41" fill="none" stroke="#387480" stroke-width="6"/><path fill="#f16060" fill-rule="evenodd" d="M55.72 18.75l-13.1 10.18a1.21 1.21 0 00-.22 1.68 1.19 1.19 0 001.67.21l10.38-8.06L65 55.4l-27.12-.75L33 39.46l4.34-3.38a1.19 1.19 0 10-1.45-1.88L31 38l-8.87 2.91a6 6 0 00-3.84 7.53l2.48 7.72a5.92 5.92 0 007.49 3.81h.11l10.36 13.08a2.52 2.52 0 002.74.83L47.16 72a2.54 2.54 0 001.63-1.67 2.51 2.51 0 00-.43-2.29l-8.63-11 28.58.79a3.55 3.55 0 001.21-.18 3.6 3.6 0 002.31-4.52L61.31 20.46a3.58 3.58 0 00-5.59-1.71zM30.54 59.67l5.81-1.9L46 70.35a.13.13 0 010 .12.18.18 0 01-.08.09l-5.55 1.82a.11.11 0 01-.14 0z"/><path fill="#387480" d="M14.8911255 72.87005769l57.98275605-57.98275606 4.2426407 4.24264068-57.98275607 57.98275606z"/></svg>
