<svg xmlns="http://www.w3.org/2000/svg" viewBox="0 0 60 82" height="82" width="60"><path id="Fill-1" d="M57.81 0H1.56A1.56 1.56 0 000 1.56v32.81h59.38V1.56A1.57 1.57 0 0057.81 0z" style="fill:#387480;fill-rule:evenodd;"/><path id="Fill-2" d="M6.25 75H3.12v4.69a1.57 1.57 0 001.57 1.56h50a1.56 1.56 0 001.56-1.56V75z" style="fill:#387480;fill-rule:evenodd;"/><path id="Fill-4" d="M3.13 37.5H0v32.81a1.56 1.56 0 001.56 1.56h56.25a1.57 1.57 0 001.57-1.56V37.5z" style="fill:#387480;fill-rule:evenodd;"/><rect id="Rectangle" width="21" height="6" x="19.5" y="44.5" style="fill:#f16060;stroke:#fff;stroke-width:3px" rx="2"/><rect id="Rectangle-2" width="21" height="6" x="19.5" y="7.5" style="fill:#f16060;stroke:#fff;stroke-width:3px" data-name="Rectangle" rx="2"/></svg>
