<svg id="Layer_1" data-name="Layer 1" xmlns="http://www.w3.org/2000/svg" viewBox="0 0 22 20"><defs><style>.cls-1{fill:#f16060;fill-rule:evenodd;}</style></defs><g id="Desktop"><g id="Account-_Light_" data-name="Account-(Light)"><path id="Fill-1" class="cls-1" d="M14.15,4.62H6.41L7.9,3.16A1.81,1.81,0,0,0,7.9.55a1.9,1.9,0,0,0-2.67,0L.56,5.14a1.81,1.81,0,0,0,0,2.62l4.67,4.59a1.86,1.86,0,0,0,2.64,0,1.81,1.81,0,0,0,0-2.61L6.39,8.28h7.76a4,4,0,1,1,0,8H4.38a1.85,1.85,0,1,0,0,3.69h9.77A7.79,7.79,0,0,0,22,12.29a7.76,7.76,0,0,0-7.85-7.67Z"/></g></g></svg>