<svg id="Layer_1" data-name="Layer 1" xmlns="http://www.w3.org/2000/svg" viewBox="0 0 600 400"><defs><style>.cls-1{fill:#e3dee1;}.cls-2{fill:#d0c8cd;}</style></defs><rect class="cls-1" width="600" height="400"/><path class="cls-2" d="M300,92.31a29.28,29.28,0,0,1,29.3,27.89,5.88,5.88,0,0,0,7.84,5.21,29.43,29.43,0,1,1,9.93,57.13,5.88,5.88,0,0,0-5.88,5.88v37.27H258.81v-7.85h68.65a5.89,5.89,0,1,0,0-11.77H258.81V188.42a5.88,5.88,0,0,0-5.88-5.88,29.42,29.42,0,1,1,9.93-57.13,5.88,5.88,0,0,0,7.84-5.21A29.28,29.28,0,0,1,300,92.31Zm0-11.76a41.18,41.18,0,0,0-40,32A41.09,41.09,0,1,0,247,193.69v37.88a5.89,5.89,0,0,0,5.89,5.88h94.14a5.89,5.89,0,0,0,5.89-5.88V193.69A41.09,41.09,0,1,0,340,112.54a41.18,41.18,0,0,0-40-32Z"/></svg>