<svg xmlns="http://www.w3.org/2000/svg" viewBox="0 0 22 20"><path style="fill:#f16060;" d="M9.11,16.29h.06a1,1,0,0,0,.88-1L9.45,6.6a1,1,0,0,0-1-.88,1,1,0,0,0-.89,1l.61,8.67a1,1,0,0,0,.95.89Z"/><path style="fill:#f16060;" d="M12.92,16.26H13a1,1,0,0,0,.95-.88l.6-8.67a1,1,0,0,0-.88-1,1,1,0,0,0-1,.89L12,15.25a.91.91,0,0,0,.88,1Z"/><path style="fill:#f16060;" d="M16,17.26a.89.89,0,0,1-.89.8H7a.89.89,0,0,1-.88-.8L4.49,3.8H17.63ZM20.34,1.9h-5.5l-1-1.43A1,1,0,0,0,13,.06h-4a1,1,0,0,0-.8.41l-1,1.43H1.75a.95.95,0,1,0,0,1.89h.82l1.64,13.7A2.79,2.79,0,0,0,7,20h8.13a2.8,2.8,0,0,0,2.79-2.46l1.64-13.7h.82a1,1,0,0,0,.94-.94,1,1,0,0,0-1-1Z"/></svg>
