<svg xmlns="http://www.w3.org/2000/svg" viewBox="0 0 213 365" height="365" width="213"><defs/><defs><style>.cls-3{fill:#387480}.cls-4{fill:#978791}.cls-5{fill:#eaeaea}.cls-6{fill:#d0c8cd}.cls-7{fill:#41393f}</style></defs><rect id="path-9" width="193" height="345" x="10" y="7" fill="#fff" rx="20"/><path id="Rectangle" style="isolation:isolate" fill="#f6f4f5" d="M10 122h193v12H10z" opacity=".5"/><path id="Rectangle-2" d="M24 168h20v4H24z" class="cls-3" data-name="Rectangle"/><path id="Rectangle-3" d="M25 309h20v4H25z" class="cls-3" data-name="Rectangle"/><path id="Rectangle-4" d="M47 168h20v4H47z" class="cls-3" data-name="Rectangle"/><path id="Rectangle-5" d="M24 148h94v12H24z" class="cls-4" data-name="Rectangle"/><path id="Rectangle-6" d="M25 232h48v9H25z" class="cls-4" data-name="Rectangle"/><path id="Rectangle-7" d="M25 294h48v9H25z" class="cls-4" data-name="Rectangle"/><path id="Rectangle-8" d="M25 203.02h165v14H25z" class="cls-5" data-name="Rectangle"/><path id="Rectangle-9" d="M50 181h48v4H50z" class="cls-6" data-name="Rectangle"/><path id="Rectangle-10" d="M50 191h48v4H50z" class="cls-6" data-name="Rectangle"/><path id="Rectangle-11" d="M36 250h59v9H36z" class="cls-5" data-name="Rectangle"/><path id="Rectangle-12" d="M25 316h165v14H25z" class="cls-5" data-name="Rectangle"/><path id="Rectangle-13" d="M25 337h20v4H25z" class="cls-3" data-name="Rectangle"/><path id="Rectangle-14" d="M25 344h165v8H25z" class="cls-5" data-name="Rectangle"/><path id="Rectangle-15" d="M24 181h16v4H24z" class="cls-7" data-name="Rectangle"/><path id="Rectangle-16" d="M24 191h16v4H24z" class="cls-7" data-name="Rectangle"/><circle id="Oval" cx="27.5" cy="254.5" r="2.5" fill="#f16060"/><circle id="Oval-2" cx="27.5" cy="267.5" r="2.5" class="cls-4" data-name="Oval"/><path id="Rectangle-17" d="M119 250h59v9h-59z" class="cls-5" data-name="Rectangle"/><path id="Rectangle-18" d="M36 263h59v9H36z" class="cls-5" data-name="Rectangle"/><path id="Rectangle-19" d="M119 263h59v9h-59z" class="cls-5" data-name="Rectangle"/><circle id="Oval-3" cx="110.5" cy="254.5" r="2.5" class="cls-4" data-name="Oval"/><circle id="Oval-4" cx="110.5" cy="267.5" r="2.5" class="cls-4" data-name="Oval"/></svg>
